<mxfile host="65bd71144e">
    <diagram id="rij00pLApFjMSedXawOR" name="Page-1">
        <mxGraphModel dx="1686" dy="1868" grid="1" gridSize="10" guides="1" tooltips="1" connect="1" arrows="1" fold="1" page="0" pageScale="1" pageWidth="850" pageHeight="1100" background="#FFFFFF" math="0" shadow="0">
            <root>
                <mxCell id="0"/>
                <mxCell id="1" parent="0"/>
                <mxCell id="20" value="alt" style="shape=umlFrame;tabWidth=110;tabHeight=30;tabPosition=left;html=1;boundedLbl=1;labelInHeader=1;width=60;height=30;" parent="1" vertex="1">
                    <mxGeometry x="-110" y="-960" width="630" height="190" as="geometry"/>
                </mxCell>
                <mxCell id="21" value="[success]" style="text" parent="20" vertex="1">
                    <mxGeometry width="100" height="20" relative="1" as="geometry">
                        <mxPoint x="20" y="40" as="offset"/>
                    </mxGeometry>
                </mxCell>
                <mxCell id="22" value="[fail]" style="line;strokeWidth=1;dashed=1;labelPosition=center;verticalLabelPosition=bottom;align=left;verticalAlign=top;spacingLeft=20;spacingTop=15;" parent="20" vertex="1">
                    <mxGeometry y="119.62962962962963" width="629.9999999999999" height="7.6" as="geometry"/>
                </mxCell>
                <mxCell id="2" value=":Order Service" style="shape=umlLifeline;perimeter=lifelinePerimeter;whiteSpace=wrap;html=1;container=1;collapsible=0;recursiveResize=0;outlineConnect=0;" parent="1" vertex="1">
                    <mxGeometry x="270" y="-680" width="100" height="760" as="geometry"/>
                </mxCell>
                <mxCell id="10" value="" style="html=1;points=[];perimeter=orthogonalPerimeter;" parent="2" vertex="1">
                    <mxGeometry x="45" y="80" width="10" height="420" as="geometry"/>
                </mxCell>
                <mxCell id="26" value="" style="html=1;points=[];perimeter=orthogonalPerimeter;" parent="2" vertex="1">
                    <mxGeometry x="50" y="120" width="10" height="160" as="geometry"/>
                </mxCell>
                <mxCell id="28" value="check&amp;nbsp;available,&lt;br&gt;price" style="edgeStyle=orthogonalEdgeStyle;html=1;align=left;spacingLeft=2;endArrow=block;rounded=0;entryX=1;entryY=0;" parent="2" edge="1">
                    <mxGeometry x="0.0676" y="5" relative="1" as="geometry">
                        <mxPoint x="55" y="110" as="sourcePoint"/>
                        <Array as="points">
                            <mxPoint x="85" y="110"/>
                        </Array>
                        <mxPoint x="60" y="130" as="targetPoint"/>
                        <mxPoint as="offset"/>
                    </mxGeometry>
                </mxCell>
                <mxCell id="42" value="False" style="edgeStyle=orthogonalEdgeStyle;html=1;align=left;spacingLeft=2;endArrow=block;rounded=0;" edge="1" parent="2">
                    <mxGeometry x="-0.0514" y="-40" relative="1" as="geometry">
                        <mxPoint x="50" y="170" as="sourcePoint"/>
                        <Array as="points">
                            <mxPoint x="20" y="170"/>
                            <mxPoint x="20" y="200"/>
                        </Array>
                        <mxPoint x="40" y="200" as="targetPoint"/>
                        <mxPoint as="offset"/>
                    </mxGeometry>
                </mxCell>
                <mxCell id="33" value="True" style="edgeStyle=orthogonalEdgeStyle;html=1;align=left;spacingLeft=2;endArrow=block;rounded=0;" edge="1" parent="2">
                    <mxGeometry x="-0.1703" relative="1" as="geometry">
                        <mxPoint x="60" y="270" as="sourcePoint"/>
                        <Array as="points">
                            <mxPoint x="90" y="270"/>
                            <mxPoint x="90" y="300"/>
                        </Array>
                        <mxPoint x="60" y="300" as="targetPoint"/>
                        <mxPoint as="offset"/>
                    </mxGeometry>
                </mxCell>
                <mxCell id="34" value="create payment session" style="html=1;verticalAlign=bottom;endArrow=block;" edge="1" parent="2">
                    <mxGeometry width="80" relative="1" as="geometry">
                        <mxPoint x="60" y="330" as="sourcePoint"/>
                        <mxPoint x="240" y="330" as="targetPoint"/>
                    </mxGeometry>
                </mxCell>
                <mxCell id="57" value="" style="html=1;points=[];perimeter=orthogonalPerimeter;" vertex="1" parent="2">
                    <mxGeometry x="45" y="630" width="10" height="60" as="geometry"/>
                </mxCell>
                <mxCell id="3" value=":Payment Service" style="shape=umlLifeline;perimeter=lifelinePerimeter;whiteSpace=wrap;html=1;container=1;collapsible=0;recursiveResize=0;outlineConnect=0;" parent="1" vertex="1">
                    <mxGeometry x="470" y="-680" width="100" height="760" as="geometry"/>
                </mxCell>
                <mxCell id="53" value="True" style="edgeStyle=orthogonalEdgeStyle;html=1;align=left;spacingLeft=2;endArrow=block;rounded=0;" edge="1" parent="3">
                    <mxGeometry x="-0.1703" relative="1" as="geometry">
                        <mxPoint x="60" y="490" as="sourcePoint"/>
                        <Array as="points">
                            <mxPoint x="90" y="490"/>
                            <mxPoint x="90" y="520"/>
                        </Array>
                        <mxPoint x="60" y="520" as="targetPoint"/>
                        <mxPoint as="offset"/>
                    </mxGeometry>
                </mxCell>
                <mxCell id="47" value="" style="html=1;points=[];perimeter=orthogonalPerimeter;" vertex="1" parent="3">
                    <mxGeometry x="45" y="310" width="10" height="320" as="geometry"/>
                </mxCell>
                <mxCell id="48" value="" style="html=1;points=[];perimeter=orthogonalPerimeter;" vertex="1" parent="3">
                    <mxGeometry x="50" y="370" width="10" height="140" as="geometry"/>
                </mxCell>
                <mxCell id="49" value="check information" style="edgeStyle=orthogonalEdgeStyle;html=1;align=left;spacingLeft=2;endArrow=block;rounded=0;entryX=1;entryY=0;" edge="1" target="48" parent="3">
                    <mxGeometry relative="1" as="geometry">
                        <mxPoint x="55" y="350" as="sourcePoint"/>
                        <Array as="points">
                            <mxPoint x="85" y="350"/>
                        </Array>
                    </mxGeometry>
                </mxCell>
                <mxCell id="50" value="False" style="edgeStyle=orthogonalEdgeStyle;html=1;align=left;spacingLeft=2;endArrow=block;rounded=0;" edge="1" parent="3">
                    <mxGeometry x="-0.0514" y="-40" relative="1" as="geometry">
                        <mxPoint x="50" y="400" as="sourcePoint"/>
                        <Array as="points">
                            <mxPoint x="20" y="400"/>
                            <mxPoint x="20" y="430"/>
                        </Array>
                        <mxPoint x="40" y="430" as="targetPoint"/>
                        <mxPoint as="offset"/>
                    </mxGeometry>
                </mxCell>
                <mxCell id="5" value=":Client" style="shape=umlLifeline;perimeter=lifelinePerimeter;whiteSpace=wrap;html=1;container=1;collapsible=0;recursiveResize=0;outlineConnect=0;" parent="1" vertex="1">
                    <mxGeometry x="70" y="-680" width="100" height="760" as="geometry"/>
                </mxCell>
                <mxCell id="6" value="" style="html=1;points=[];perimeter=orthogonalPerimeter;" parent="5" vertex="1">
                    <mxGeometry x="45" y="70" width="10" height="590" as="geometry"/>
                </mxCell>
                <mxCell id="43" value="order creation failed" style="html=1;verticalAlign=bottom;endArrow=block;" edge="1" parent="5">
                    <mxGeometry width="80" relative="1" as="geometry">
                        <mxPoint x="240" y="235" as="sourcePoint"/>
                        <mxPoint x="60" y="234.57999999999998" as="targetPoint"/>
                    </mxGeometry>
                </mxCell>
                <mxCell id="7" value="select and checkout products" style="html=1;verticalAlign=bottom;endArrow=block;" parent="1" edge="1">
                    <mxGeometry width="80" relative="1" as="geometry">
                        <mxPoint x="130" y="-590" as="sourcePoint"/>
                        <mxPoint x="310" y="-590" as="targetPoint"/>
                        <mxPoint as="offset"/>
                    </mxGeometry>
                </mxCell>
                <mxCell id="44" value="alt" style="shape=umlFrame;tabWidth=110;tabHeight=30;tabPosition=left;html=1;boundedLbl=1;labelInHeader=1;width=60;height=30;" vertex="1" parent="1">
                    <mxGeometry x="-320" y="-310" width="380" height="230" as="geometry"/>
                </mxCell>
                <mxCell id="45" value="[fail]" style="text" vertex="1" parent="44">
                    <mxGeometry width="100" height="20" relative="1" as="geometry">
                        <mxPoint x="20" y="40" as="offset"/>
                    </mxGeometry>
                </mxCell>
                <mxCell id="46" value="[success]" style="line;strokeWidth=1;dashed=1;labelPosition=center;verticalLabelPosition=bottom;align=left;verticalAlign=top;spacingLeft=20;spacingTop=15;" vertex="1" parent="44">
                    <mxGeometry y="50" width="380" height="104.02" as="geometry"/>
                </mxCell>
                <mxCell id="51" value="payment session creation failed" style="html=1;verticalAlign=bottom;endArrow=block;" edge="1" parent="1">
                    <mxGeometry width="80" relative="1" as="geometry">
                        <mxPoint x="510" y="-219.58" as="sourcePoint"/>
                        <mxPoint x="330" y="-220.00000000000009" as="targetPoint"/>
                    </mxGeometry>
                </mxCell>
                <mxCell id="52" value="order is in pending status" style="html=1;verticalAlign=bottom;endArrow=block;" edge="1" parent="1">
                    <mxGeometry width="80" relative="1" as="geometry">
                        <mxPoint x="310" y="-199.58" as="sourcePoint"/>
                        <mxPoint x="130" y="-200.00000000000009" as="targetPoint"/>
                    </mxGeometry>
                </mxCell>
                <mxCell id="54" value="payment session url" style="html=1;verticalAlign=bottom;endArrow=block;" edge="1" parent="1">
                    <mxGeometry width="80" relative="1" as="geometry">
                        <mxPoint x="510" y="-139.57999999999993" as="sourcePoint"/>
                        <mxPoint x="130" y="-140" as="targetPoint"/>
                    </mxGeometry>
                </mxCell>
                <mxCell id="55" value="process payment" style="html=1;verticalAlign=bottom;endArrow=block;" edge="1" parent="1">
                    <mxGeometry width="80" relative="1" as="geometry">
                        <mxPoint x="130" y="-110" as="sourcePoint"/>
                        <mxPoint x="510" y="-109.58000000000015" as="targetPoint"/>
                    </mxGeometry>
                </mxCell>
                <mxCell id="56" value="payment confirmed" style="html=1;verticalAlign=bottom;endArrow=block;" edge="1" parent="1">
                    <mxGeometry width="80" relative="1" as="geometry">
                        <mxPoint x="510" y="-39.57999999999993" as="sourcePoint"/>
                        <mxPoint x="330" y="-40" as="targetPoint"/>
                    </mxGeometry>
                </mxCell>
                <mxCell id="59" value="order confirmed (invoice)" style="html=1;verticalAlign=bottom;endArrow=block;" edge="1" parent="1">
                    <mxGeometry width="80" relative="1" as="geometry">
                        <mxPoint x="310" y="-19.579999999999927" as="sourcePoint"/>
                        <mxPoint x="130" y="-20" as="targetPoint"/>
                    </mxGeometry>
                </mxCell>
            </root>
        </mxGraphModel>
    </diagram>
</mxfile>